<?xml version="1.0" encoding="UTF-8"?>
<svg xmlns="http://www.w3.org/2000/svg" width="64" height="64" viewBox="0 0 32 32" role="img" aria-label="PoPLedger favicon">
  <title>PoPLedger</title>
  <style type="text/css">
    .hatch_een{fill:#0f766e;}
    .hatch_twee{fill:#ffffff;}
  </style>
  <g>
    <path class="hatch_twee" d="M10.037,22.446l-1.829,1.829L8.06,23.009l2.202-2.202C10.092,21.182,10,21.583,10,22 C10,22.151,10.014,22.299,10.037,22.446z M13.069,14l-5.43,5.43l0.149,1.265L14.483,14H13.069z M14.328,18.155L18.483,14h-1.414 l-4.898,4.898C12.793,18.559,13.525,18.305,14.328,18.155z M10.919,24.149l-2.438,2.439l0.05,0.422l0.099,0.843l3.053-3.053 C11.395,24.603,11.14,24.384,10.919,24.149z M9.069,14l-1.851,1.851l0.149,1.265L10.483,14H9.069z M18.209,18.274L22.483,14h-1.414 l-4.059,4.059C17.427,18.104,17.828,18.176,18.209,18.274z M22,22c0,0.185-0.024,0.364-0.059,0.542l2.328-2.328l0.189-1.603 l-2.576,2.576C21.959,21.449,22,21.721,22,22z M20.043,19.026c0.301,0.181,0.573,0.383,0.812,0.602l3.948-3.948l0.188-1.602 L20.043,19.026z M17.483,31l6.253-6.253l0.189-1.603L16.069,31H17.483z M17.141,25.928L12.069,31h1.414l5.527-5.527 C18.441,25.689,17.813,25.845,17.141,25.928z M21.483,31l1.719-1.719l0.189-1.603L20.069,31H21.483z M13.442,25.627l-4.54,4.54 L9,31h0.483l5.111-5.111C14.191,25.827,13.807,25.739,13.442,25.627z"/>
    <path class="hatch_een" d="M27,11.5c0-0.799-0.385-1.532-1-1.993c0-0.002,0-0.004,0-0.007c0-1.16-0.798-2.129-1.871-2.41 C24.358,6.711,24.5,6.277,24.5,5.812c0-1.379-1.122-2.5-2.5-2.5c-0.347,0-0.686,0.073-1,0.212c-0.314-0.139-0.653-0.212-1-0.212 c-0.47,0-0.904,0.138-1.28,0.364c-0.068-0.055-0.14-0.11-0.22-0.17c0-0.002,0-0.004,0-0.007C18.5,2.121,17.378,1,16,1 s-2.5,1.121-2.5,2.5c0,0.002,0,0.004,0,0.007c-0.082,0.062-0.151,0.118-0.213,0.174C12.91,3.452,12.472,3.312,12,3.312 c-0.347,0-0.686,0.073-1,0.212c-0.314-0.139-0.653-0.212-1-0.212c-1.378,0-2.5,1.121-2.5,2.5c0,0.464,0.142,0.898,0.371,1.277 C6.798,7.371,6,8.34,6,9.5c0,0.002,0,0.004,0,0.007C5.385,9.968,5,10.701,5,11.5c0,0.866,0.444,1.63,1.115,2.079 c-0.08,0.168-0.13,0.349-0.108,0.538l2,17C8.066,31.62,8.493,32,9,32h14c0.507,0,0.934-0.38,0.993-0.883l1.992-16.929 c0.012-0.061,0.018-0.124,0.018-0.188c0-0.155-0.042-0.297-0.105-0.429C26.562,13.122,27,12.361,27,11.5z M20,4.312 c0.386,0,0.734,0.15,1,0.389l0,0l0,0c0.266-0.239,0.614-0.389,1-0.389c0.828,0,1.5,0.672,1.5,1.5c0,0.693-0.471,1.255-1.1,1.452 C22.112,7.347,21,7.924,21,9.5c0,0,0,0,0-0.001c0,0,0,0,0,0c0-1.576-1.112-2.153-1.4-2.235c-0.629-0.197-1.1-0.76-1.1-1.452 C18.5,4.984,19.171,4.312,20,4.312z M16.659,10.269c0.123-0.088,0.267-0.161,0.45-0.211C17.04,9.885,17,9.698,17,9.5 C17,8.672,17.672,8,18.5,8S20,8.672,20,9.5c0,0.198-0.04,0.385-0.11,0.558C20.528,10.23,21,10.807,21,11.5 c0,0.828-0.672,1.5-1.5,1.5c-0.386,0-0.734-0.15-1-0.389C18.234,12.85,17.886,13,17.5,13c-0.351,0-0.618-0.113-0.828-0.286 C16.874,12.353,17,11.943,17,11.5C17,11.055,16.871,10.637,16.659,10.269z M14.61,4.058C14.54,3.885,14.5,3.698,14.5,3.5 C14.5,2.672,15.172,2,16,2s1.5,0.672,1.5,1.5c0,0.198-0.04,0.385-0.11,0.558c0.217,0.059,0.403,0.177,0.57,0.319 c-0.288,0.407-0.46,0.901-0.46,1.436c0,0.352,0.086,0.686,0.222,0.995C17.507,6.926,17.263,7,17,7c-0.386,0-0.734-0.15-1-0.389 C15.734,6.85,15.386,7,15,7c-0.263,0-0.507-0.074-0.722-0.193C14.414,6.499,14.5,6.165,14.5,5.812c0-0.535-0.172-1.029-0.46-1.436 C14.207,4.235,14.393,4.117,14.61,4.058z M16.552,7.953C16.212,8.38,16,8.913,16,9.5c0-0.587-0.212-1.12-0.552-1.547 c0.19-0.035,0.375-0.087,0.552-0.165C16.176,7.866,16.362,7.918,16.552,7.953z M15,9.5c0,0.198-0.04,0.385-0.11,0.558 C15.528,10.23,16,10.807,16,11.5c0,0.828-0.672,1.5-1.5,1.5c-0.386,0-0.734-0.15-1-0.389C13.234,12.85,12.886,13,12.5,13 c-0.34,0-0.622-0.12-0.855-0.295C11.866,12.374,12,11.972,12,11.5c0-0.448-0.131-0.868-0.345-1.238 c0.129-0.085,0.276-0.156,0.455-0.204C12.04,9.885,12,9.698,12,9.5C12,8.672,12.672,8,13.5,8S15,8.672,15,9.5z M10,4.312 c0.386,0,0.734,0.15,1,0.389l0,0l0,0c0.266-0.239,0.614-0.389,1-0.389c0.828,0,1.5,0.672,1.5,1.5c0,0.693-0.471,1.255-1.1,1.452 C12.112,7.347,11,7.924,11,9.5c0,0,0,0,0-0.001c0,0,0,0,0,0c0-1.576-1.112-2.153-1.4-2.235C8.97,7.068,8.5,6.505,8.5,5.812 C8.5,4.984,9.171,4.312,10,4.312z M6,11.5c0-0.693,0.472-1.27,1.11-1.442C7.04,9.885,7,9.698,7,9.5C7,8.672,7.672,8,8.5,8 S10,8.672,10,9.5c0,0.198-0.04,0.385-0.11,0.558C10.528,10.23,11,10.807,11,11.5c0,0.828-0.672,1.5-1.5,1.5 c-0.386,0-0.734-0.15-1-0.389C8.234,12.85,7.886,13,7.5,13C6.672,13,6,12.328,6,11.5z M23,31H9L7,14h18L23,31z M24.5,13 c-0.386,0-0.734-0.15-1-0.389C23.234,12.85,22.886,13,22.5,13c-0.355,0-0.622-0.111-0.829-0.284C21.874,12.354,22,11.944,22,11.5 c0-0.446-0.13-0.865-0.343-1.234c0.128-0.087,0.275-0.16,0.453-0.208C22.04,9.885,22,9.698,22,9.5C22,8.672,22.672,8,23.5,8 S25,8.672,25,9.5c0,0.198-0.04,0.385-0.11,0.558C25.528,10.23,26,10.807,26,11.5C26,12.328,25.328,13,24.5,13z M21,22 c0,1.657-2.239,3-5,3s-5-1.343-5-3s2.224-3,5-3S21,20.343,21,22z M16,18c-3.365,0-6,1.757-6,4s2.635,4,6,4s6-1.757,6-4 S19.365,18,16,18L16,18z"/>
  </g>
</svg>
