<?xml version="1.0" encoding="UTF-8"?>
<svg version="1.1" xmlns="http://www.w3.org/2000/svg" width="472" height="347">
<path d="M0 0 C155.76 0 311.52 0 472 0 C472 114.51 472 229.02 472 347 C316.24 347 160.48 347 0 347 C0 232.49 0 117.98 0 0 Z " fill="#FEFEFD" transform="translate(0,0)"/>
<path d="M0 0 C9.63433722 6.22472604 14.79463223 15.04257562 17.25 26.0625 C19.58867816 52.5460141 11.09296946 81.46116612 -5.72290039 102.14794922 C-7.99800136 104.84891359 -10.3620058 107.4614601 -12.75 110.0625 C-13.55308594 110.9596875 -14.35617187 111.856875 -15.18359375 112.78125 C-25.62598632 123.89236722 -42.23826163 135.46445464 -57.85546875 136.2109375 C-63.30420136 136.2725051 -68.38042391 136.00087706 -73.75 135.0625 C-73.78536362 135.62245163 -73.82072723 136.18240326 -73.85716248 136.75932312 C-74.22931632 142.64926797 -74.60271803 148.53913281 -74.97680664 154.42895508 C-75.11579103 156.61969048 -75.25446963 158.81044531 -75.39282227 161.0012207 C-75.78100978 167.14635523 -76.17678394 173.29091226 -76.58123779 179.43499756 C-76.73059903 181.76044133 -76.86814208 184.08613811 -77.00048828 186.41259766 C-77.07380371 187.58226074 -77.14711914 188.75192383 -77.22265625 189.95703125 C-77.2781665 190.9210083 -77.33367676 191.88498535 -77.39086914 192.87817383 C-77.75 195.0625 -77.75 195.0625 -79.75 197.0625 C-82.375 196.6875 -82.375 196.6875 -84.75 196.0625 C-84.77512449 191.35262419 -84.79305588 186.64278921 -84.80493164 181.93286133 C-84.80989369 180.33780231 -84.81666548 178.74274768 -84.82543945 177.14770508 C-84.88123099 166.7278151 -84.55699439 156.45617987 -83.75 146.0625 C-83.55066027 143.18281599 -83.40950051 140.32399995 -83.3125 137.4375 C-83.22162109 135.50003906 -83.22162109 135.50003906 -83.12890625 133.5234375 C-83.78893118 129.84556276 -84.07993209 129.36196333 -86.77734375 127.1015625 C-87.75832031 126.42867187 -88.73929687 125.75578125 -89.75 125.0625 C-89.42 123.7425 -89.09 122.4225 -88.75 121.0625 C-86.58125748 121.56853992 -84.75032373 122.06233813 -82.75 123.0625 C-82.76160156 122.43375977 -82.77320313 121.80501953 -82.78515625 121.15722656 C-82.85081437 114.66410763 -82.51913459 108.2678645 -82.03857422 101.79443359 C-80.13912468 75.58460119 -80.55990073 49.32421867 -80.75 23.0625 C-90.97951367 32.84513783 -93.65006843 49.25153324 -94.15161133 62.86791992 C-94.28389206 71.41757455 -94.07689395 82.1779634 -88.11328125 88.91015625 C-87.66339844 89.29042969 -87.21351563 89.67070312 -86.75 90.0625 C-87.08 91.0525 -87.41 92.0425 -87.75 93.0625 C-90 92.9375 -90 92.9375 -92.75 92.0625 C-99.62043985 84.38377311 -100.01758446 74.33391243 -100.0625 64.5 C-100.06797852 63.62593506 -100.07345703 62.75187012 -100.07910156 61.85131836 C-99.92130947 47.33580603 -95.79139712 28.08834782 -85.75 17.0625 C-82.75 15.0625 -82.75 15.0625 -80.3125 15.125 C-76.85675642 16.38929643 -75.73050871 17.98929683 -73.75 21.0625 C-72.01562401 25.4182566 -71.50476161 29.03623253 -71.52294922 33.71044922 C-71.52310028 35.01134491 -71.52325134 36.3122406 -71.52340698 37.65255737 C-71.53361798 39.05743567 -71.54404993 40.46231237 -71.5546875 41.8671875 C-71.55842154 43.31592615 -71.56126667 44.76466734 -71.56326294 46.21340942 C-71.57086864 50.0110176 -71.59049048 53.80847078 -71.6126709 57.60601807 C-71.63319562 61.48732405 -71.64227878 65.36865529 -71.65234375 69.25 C-71.67373955 76.85423704 -71.70783809 84.45834673 -71.75 92.0625 C-71.6132637 91.50442657 -71.4765274 90.94635315 -71.33564758 90.37136841 C-70.70178409 87.79116329 -70.06380327 85.21199233 -69.42578125 82.6328125 C-69.21087036 81.75536377 -68.99595947 80.87791504 -68.77453613 79.97387695 C-63.13806082 57.2497058 -54.44356345 31.85277436 -38.75 14.0625 C-37.64011719 12.7940625 -37.64011719 12.7940625 -36.5078125 11.5 C-26.9662848 1.25733767 -13.95494554 -6.84582234 0 0 Z " fill="#FBFCFB" transform="translate(355.75,79.9375)"/>
<path d="M0 0 C7.01814325 5.06205059 10.52706654 11.61028728 12.57421875 19.87109375 C13.03125732 23.67211381 13.09868783 27.42024444 13.07421875 31.24609375 C13.06849854 32.29539063 13.06277832 33.3446875 13.05688477 34.42578125 C12.44140324 61.74735837 -1.51326947 88.52837563 -20.9765625 107.3359375 C-32.7532179 117.54237218 -47.14932103 125.35114845 -62.98046875 125.07421875 C-65.23956014 124.8865626 -67.25207448 124.49793012 -69.42578125 123.87109375 C-68.85859212 85.92098486 -55.68245156 36.20052164 -28.921875 8.1875 C-21.11168355 0.93954456 -10.740015 -4.99817123 0 0 Z " fill="#FDFDFC" transform="translate(201.42578125,85.12890625)"/>
<path d="M0 0 C9.63433722 6.22472604 14.79463223 15.04257562 17.25 26.0625 C19.58867816 52.5460141 11.09296946 81.46116612 -5.72290039 102.14794922 C-7.99800136 104.84891359 -10.3620058 107.4614601 -12.75 110.0625 C-13.55308594 110.9596875 -14.35617187 111.856875 -15.18359375 112.78125 C-25.62598632 123.89236722 -42.23826163 135.46445464 -57.85546875 136.2109375 C-63.30420136 136.2725051 -68.38042391 136.00087706 -73.75 135.0625 C-73.78536362 135.62245163 -73.82072723 136.18240326 -73.85716248 136.75932312 C-74.22931632 142.64926797 -74.60271803 148.53913281 -74.97680664 154.42895508 C-75.11579103 156.61969048 -75.25446963 158.81044531 -75.39282227 161.0012207 C-75.78100978 167.14635523 -76.17678394 173.29091226 -76.58123779 179.43499756 C-76.73059903 181.76044133 -76.86814208 184.08613811 -77.00048828 186.41259766 C-77.07380371 187.58226074 -77.14711914 188.75192383 -77.22265625 189.95703125 C-77.2781665 190.9210083 -77.33367676 191.88498535 -77.39086914 192.87817383 C-77.75 195.0625 -77.75 195.0625 -79.75 197.0625 C-82.375 196.6875 -82.375 196.6875 -84.75 196.0625 C-84.77512449 191.35262419 -84.79305588 186.64278921 -84.80493164 181.93286133 C-84.80989369 180.33780231 -84.81666548 178.74274768 -84.82543945 177.14770508 C-84.88123099 166.7278151 -84.55699439 156.45617987 -83.75 146.0625 C-83.55066027 143.18281599 -83.40950051 140.32399995 -83.3125 137.4375 C-83.22162109 135.50003906 -83.22162109 135.50003906 -83.12890625 133.5234375 C-83.78893118 129.84556276 -84.07993209 129.36196333 -86.77734375 127.1015625 C-87.75832031 126.42867187 -88.73929687 125.75578125 -89.75 125.0625 C-89.42 123.7425 -89.09 122.4225 -88.75 121.0625 C-86.58125748 121.56853992 -84.75032373 122.06233813 -82.75 123.0625 C-82.76160156 122.43375977 -82.77320313 121.80501953 -82.78515625 121.15722656 C-82.85081437 114.66410763 -82.51913459 108.2678645 -82.03857422 101.79443359 C-80.13912468 75.58460119 -80.55990073 49.32421867 -80.75 23.0625 C-90.97951367 32.84513783 -93.65006843 49.25153324 -94.15161133 62.86791992 C-94.28389206 71.41757455 -94.07689395 82.1779634 -88.11328125 88.91015625 C-87.66339844 89.29042969 -87.21351563 89.67070312 -86.75 90.0625 C-87.08 91.0525 -87.41 92.0425 -87.75 93.0625 C-90 92.9375 -90 92.9375 -92.75 92.0625 C-99.62043985 84.38377311 -100.01758446 74.33391243 -100.0625 64.5 C-100.06797852 63.62593506 -100.07345703 62.75187012 -100.07910156 61.85131836 C-99.92130947 47.33580603 -95.79139712 28.08834782 -85.75 17.0625 C-82.75 15.0625 -82.75 15.0625 -80.3125 15.125 C-76.85675642 16.38929643 -75.73050871 17.98929683 -73.75 21.0625 C-72.01562401 25.4182566 -71.50476161 29.03623253 -71.52294922 33.71044922 C-71.52310028 35.01134491 -71.52325134 36.3122406 -71.52340698 37.65255737 C-71.53361798 39.05743567 -71.54404993 40.46231237 -71.5546875 41.8671875 C-71.55842154 43.31592615 -71.56126667 44.76466734 -71.56326294 46.21340942 C-71.57086864 50.0110176 -71.59049048 53.80847078 -71.6126709 57.60601807 C-71.63319562 61.48732405 -71.64227878 65.36865529 -71.65234375 69.25 C-71.67373955 76.85423704 -71.70783809 84.45834673 -71.75 92.0625 C-71.6132637 91.50442657 -71.4765274 90.94635315 -71.33564758 90.37136841 C-70.70178409 87.79116329 -70.06380327 85.21199233 -69.42578125 82.6328125 C-69.21087036 81.75536377 -68.99595947 80.87791504 -68.77453613 79.97387695 C-63.13806082 57.2497058 -54.44356345 31.85277436 -38.75 14.0625 C-37.64011719 12.7940625 -37.64011719 12.7940625 -36.5078125 11.5 C-26.9662848 1.25733767 -13.95494554 -6.84582234 0 0 Z M-37.10546875 19.9765625 C-58.88249532 50.18703309 -69.54533871 91.33403894 -72.75 128.0625 C-67.43181407 131.60795729 -61.46485733 130.58664009 -55.37109375 129.41015625 C-33.82674903 123.80140506 -16.85418302 108.92294856 -5.43359375 90.01171875 C-4.87800781 89.03847656 -4.32242188 88.06523437 -3.75 87.0625 C-3.16347656 86.03769531 -2.57695312 85.01289063 -1.97265625 83.95703125 C3.29821069 74.11884854 6.37531953 63.80766486 9.25 53.0625 C9.43481934 52.41442383 9.61963867 51.76634766 9.81005859 51.09863281 C10.70684078 46.94815365 10.4775349 42.66655438 10.5 38.4375 C10.520625 37.49003906 10.54125 36.54257813 10.5625 35.56640625 C10.62045136 24.97579586 8.03480196 16.28802535 1.25 8.0625 C-2.52495474 4.37742514 -5.50672802 3.77468967 -10.625 3.5625 C-22.23928283 4.03450903 -29.99891038 11.1847009 -37.10546875 19.9765625 Z " fill="#187B73" transform="translate(355.75,79.9375)"/>
<path d="M0 0 C9.44338083 4.83973268 13.93477538 12.86551151 17.36328125 22.59765625 C20.54900003 36.39308161 18.61988119 51.15279695 14.25 64.4375 C14.03037598 65.13713867 13.81075195 65.83677734 13.58447266 66.55761719 C5.25439062 92.93326263 -11.17037987 116.04314501 -35.75 129.4375 C-39.6863645 131.31130158 -43.64605735 132.96927914 -47.75 134.4375 C-48.70777344 134.80617187 -49.66554687 135.17484375 -50.65234375 135.5546875 C-54.17061826 136.55737355 -57.15923799 136.66872784 -60.8125 136.625 C-61.99972656 136.61855469 -63.18695313 136.61210937 -64.41015625 136.60546875 C-67.32044539 136.45910333 -69.91198091 136.04381095 -72.75 135.4375 C-73.7147515 147.1727248 -74.62672906 158.90790488 -75.29296875 170.6640625 C-75.33681702 171.4353952 -75.38066528 172.20672791 -75.42584229 173.00143433 C-75.64182141 176.82986772 -75.85076269 180.6585703 -76.05224609 184.48779297 C-76.12980383 185.89811632 -76.20743689 187.30843554 -76.28515625 188.71875 C-76.350979 189.96720703 -76.41680176 191.21566406 -76.48461914 192.50195312 C-76.75 195.4375 -76.75 195.4375 -77.75 197.4375 C-79.4 197.4375 -81.05 197.4375 -82.75 197.4375 C-82.73667633 196.60922195 -82.72335266 195.78094391 -82.70962524 194.92756653 C-82.58931372 187.11498347 -82.49800833 179.30271227 -82.43912697 171.48941517 C-82.40783696 167.47260273 -82.36540966 163.45655681 -82.29736328 159.44018555 C-82.2320831 155.56274088 -82.19627642 151.68603252 -82.18073654 147.80808067 C-82.16966531 146.33002824 -82.14804439 144.85201532 -82.11561966 143.37427711 C-81.62003034 135.52479302 -81.62003034 135.52479302 -84.12567139 128.39144897 C-85.89224202 126.79961793 -85.89224202 126.79961793 -88.75 125.4375 C-88.42 124.1175 -88.09 122.7975 -87.75 121.4375 C-84.78824877 122.05027612 -83.36941217 122.69122522 -80.75 124.4375 C-80.76160156 123.13941406 -80.77320312 121.84132813 -80.78515625 120.50390625 C-80.79456463 118.66927232 -80.80366142 116.83463677 -80.8125 115 C-80.82087891 114.16017578 -80.82925781 113.32035156 -80.83789062 112.45507812 C-80.85957596 106.31812926 -80.66594796 100.21383809 -80.39071655 94.08383179 C-79.716438 79.00739623 -79.63334288 63.96439928 -79.6875 48.875 C-79.6925347 46.38737071 -79.69709406 43.89974042 -79.70117188 41.41210938 C-79.71199924 35.42055025 -79.72857513 29.42903014 -79.75 23.4375 C-89.54796669 33.04478214 -92.83745321 49.94431765 -93.29663086 63.30175781 C-93.35030864 72.00581644 -93.28005584 82.43173423 -87.11328125 89.24609375 C-86.66339844 89.63925781 -86.21351562 90.03242188 -85.75 90.4375 C-86.08 91.4275 -86.41 92.4175 -86.75 93.4375 C-89 93.375 -89 93.375 -91.75 92.4375 C-99.53123601 82.59652504 -99.92054018 67.4631439 -98.75 55.4375 C-96.99212254 42.2065423 -93.02867185 26.4540384 -83.75 16.4375 C-80.8125 15.3125 -80.8125 15.3125 -77.75 15.4375 C-73.29965186 18.67411683 -71.6498846 22.15765041 -70.75 27.4375 C-70.42355001 32.03886079 -70.37767574 36.63441873 -70.3359375 41.24609375 C-70.31720174 42.58131576 -70.29762658 43.91652623 -70.2772522 45.25172424 C-70.22617881 48.74503743 -70.18642153 52.23838891 -70.14910889 55.73187256 C-70.10891262 59.3050667 -70.05789202 62.87810501 -70.0078125 66.45117188 C-69.91134743 73.44650039 -69.82684969 80.44192922 -69.75 87.4375 C-69.55300507 86.75399979 -69.35601013 86.07049957 -69.15304565 85.36628723 C-68.24750939 82.22921418 -67.33862296 79.09312103 -66.4296875 75.95703125 C-66.11990967 74.88199341 -65.81013184 73.80695557 -65.4909668 72.69934082 C-57.69987644 45.86051905 -46.52930869 14.88821559 -20.84375 0.4609375 C-14.32363371 -2.72613427 -6.70833584 -2.69716596 0 0 Z M-36.00634766 20.04199219 C-38.8631769 24.01297322 -41.34501053 28.18170405 -43.75 32.4375 C-44.63945312 33.98630859 -44.63945312 33.98630859 -45.546875 35.56640625 C-60.45436642 63.43247393 -69.93101873 97.82482299 -70.75 129.4375 C-58.77648524 132.84662573 -48.00866139 128.72951641 -37.3125 123.375 C-14.41077098 110.46028543 0.04973197 88.00473209 7.6640625 63.31103516 C8.16500936 61.70925757 8.71799837 60.12391365 9.28125 58.54296875 C11.48480514 51.57524578 11.58755308 44.56194632 11.6875 37.3125 C11.70989746 36.29857178 11.73229492 35.28464355 11.75537109 34.23999023 C11.72468878 24.32556705 8.77069422 15.30032175 1.86328125 7.96484375 C-2.65212626 4.0398285 -6.98388836 3.73747137 -12.8359375 4.03515625 C-22.42393707 5.35896852 -30.19072945 12.61481712 -36.00634766 20.04199219 Z " fill="#187B73" transform="translate(202.75,79.5625)"/>
<path d="M0 0 C1.1152002 0.3700415 1.1152002 0.3700415 2.25292969 0.74755859 C17.30630159 5.87981955 30.38726429 13.32165587 43 23 C42.38722388 25.96175123 41.74627478 27.38058783 40 30 C36.15495141 28.65014252 33.42273177 26.91116457 30.25 24.375 C7.82839942 7.76975549 -22.89359012 0.79427681 -50.40917969 4.30761719 C-53.26210911 4.78165387 -56.09061904 5.3324605 -58.91870117 5.93652344 C-63.97652341 6.9743385 -68.66457643 7.06104194 -73.8125 6.875 C-85.69876526 6.59888846 -93.45968671 10.77257058 -101.84179688 18.77197266 C-105.78257273 22.66957268 -109.45850321 26.74135011 -113 31 C-114.10146222 32.25238373 -115.20572139 33.50231208 -116.3125 34.75 C-118.45731752 37.19284456 -120.55920634 39.665395 -122.62890625 42.171875 C-123.08289795 42.72133789 -123.53688965 43.27080078 -124.00463867 43.83691406 C-124.90990589 44.93555655 -125.81246936 46.03643312 -126.7121582 47.13964844 C-127.78656066 48.44447504 -128.89058446 49.72480972 -130 51 C-130.33 51 -130.66 51 -131 51 C-132.05731552 40.93032834 -132.05731552 40.93032834 -129.72265625 36.66796875 C-127.92886071 34.60571401 -126.05427387 32.80192545 -124 31 C-123.42121094 30.44183594 -122.84242188 29.88367188 -122.24609375 29.30859375 C-106.96853438 15.08693481 -88.03418033 4.63925076 -68 -1 C-67.22398437 -1.23203125 -66.44796875 -1.4640625 -65.6484375 -1.703125 C-46.20170046 -7.1265178 -19.14456108 -6.45934378 0 0 Z " fill="#182C26" transform="translate(269,66)"/>
<path d="M0 0 C1.37073914 33.96386973 -11.14579196 64.9678015 -34.01953125 89.90625 C-35.65358399 91.63376927 -37.30541611 93.33214456 -39 95 C-41.62187494 93.95125002 -42.79371361 93.35068687 -44.25 90.875 C-44.4975 90.25625 -44.745 89.6375 -45 89 C-44.34 88.360625 -43.68 87.72125 -43 87.0625 C-41.99519041 86.04640041 -40.99586341 85.02486914 -40 84 C-39.40703125 83.3915625 -38.8140625 82.783125 -38.203125 82.15625 C-20.90640478 63.61416593 -9.85718185 37.84310669 -8.6875 12.5 C-8.33131102 7.93148918 -5.35881012 0 0 0 Z " fill="#192D27" transform="translate(358,182)"/>
<path d="M0 0 C0.78375 0.04125 1.5675 0.0825 2.375 0.125 C3.52965729 3.71726714 3.52965729 3.71726714 2.6875 5.9375 C2.09268293 8.41168699 2.09268293 8.41168699 4.3125 11.1875 C7.88230521 16.94365649 6.98820436 23.89737556 5.6875 30.3125 C4.15046223 35.61037486 1.25923023 40.17998815 -2.5625 44.125 C-5.43301316 45.51676396 -7.47926403 45.52658332 -10.625 45.125 C-13.18449546 43.27157225 -13.60418798 42.18743607 -14.625 39.125 C-15.8446262 25.40920373 -11.96536297 13.63888363 -4.625 2.125 C-2.625 0.125 -2.625 0.125 0 0 Z " fill="#177A72" transform="translate(236.625,151.875)"/>
<path d="M0 0 C11.62718892 4.85107882 19.49657086 23.31213784 24.5 34.3125 C27.32744828 41.29054784 29.56727041 47.8875482 26.5625 55.125 C26.046875 56.07375 25.53125 57.0225 25 58 C24.34 58 23.68 58 23 58 C22.731875 56.9584375 22.46375 55.916875 22.1875 54.84375 C17.74389497 38.31198353 10.50942826 22.35059437 -1.0625 9.5 C-3 7 -3 7 -2.9375 4.8125 C-2 3 -2 3 0 0 Z " fill="#182B25" transform="translate(324,103)"/>
<path d="M0 0 C3.0004893 2.84152298 5.34722596 5.78747922 7.6875 9.1875 C11.62274737 14.70129293 16.06680734 19.37513188 21 24 C19.35 25.98 17.7 27.96 16 30 C3.36842105 19.73684211 3.36842105 19.73684211 0 13 C-0.07092842 10.7927077 -0.08415025 8.58332548 -0.0625 6.375 C-0.05347656 5.18648437 -0.04445312 3.99796875 -0.03515625 2.7734375 C-0.02355469 1.85820312 -0.01195312 0.94296875 0 0 Z " fill="#192D27" transform="translate(133,248)"/>
<path d="M0 0 C2.11366004 1.40910669 2.76886185 2.41164835 3.6875 4.75 C4.11719431 7.84379905 4.05996827 10.88165003 4 14 C0.30516081 15.18234854 -3.14353614 15.2804701 -7 15 C-9.18034419 13.40880193 -9.90457694 12.51640715 -10.3984375 9.84375 C-10.39070312 9.0703125 -10.38296875 8.296875 -10.375 7.5 C-10.38273438 6.7265625 -10.39046875 5.953125 -10.3984375 5.15625 C-9.3305481 -0.62291619 -5.10780837 -0.54726518 0 0 Z " fill="#ECF3EF" transform="translate(251,298)"/>
<path d="M0 0 C8.44303797 0.61181435 8.44303797 0.61181435 10.8046875 2.2578125 C12.39531951 4.57618465 12.19807535 5.80903841 11.8125 8.5625 C11.66748047 9.74005859 11.66748047 9.74005859 11.51953125 10.94140625 C11 13 11 13 9 15 C6.6171875 15.1953125 6.6171875 15.1953125 3.875 15.125 C1.461875 15.063125 1.461875 15.063125 -1 15 C-0.67 10.05 -0.34 5.1 0 0 Z " fill="#EFF5F1" transform="translate(210,297)"/>
<path d="M0 0 C2.64 0.66 5.28 1.32 8 2 C8 7.28 8 12.56 8 18 C5.69 19.32 3.38 20.64 1 22 C0.18565857 19.14839609 -0.11881242 16.63373869 -0.09765625 13.671875 C-0.09282227 12.47304687 -0.09282227 12.47304687 -0.08789062 11.25 C-0.07951172 10.425 -0.07113281 9.6 -0.0625 8.75 C-0.05798828 7.90953125 -0.05347656 7.0690625 -0.04882812 6.203125 C-0.03707961 4.13538599 -0.01914522 2.06768376 0 0 Z " fill="#23352F" transform="translate(108,177)"/>
<path d="M0 0 C0.66 0 1.32 0 2 0 C4.28341486 4.56682972 3.43895667 10.23280139 2.24609375 15.03515625 C-0.28192108 22.55971803 -0.28192108 22.55971803 -3.140625 24.3125 C-4.06101563 24.6528125 -4.06101563 24.6528125 -5 25 C-5.62417822 16.34819639 -4.0817254 9.09417034 -1 1 C-0.67 0.67 -0.34 0.34 0 0 Z " fill="#F7FAF6" transform="translate(234,165)"/>
<path d="M0 0 C0.12375 0.928125 0.12375 0.928125 0.25 1.875 C0.81258459 4.18437567 0.81258459 4.18437567 3.0625 5.25 C3.701875 5.4975 4.34125 5.745 5 6 C5 6.66 5 7.32 5 8 C5.66 8 6.32 8 7 8 C7 8.66 7 9.32 7 10 C6.01 10 5.02 10 4 10 C3.34 9.01 2.68 8.02 2 7 C-0.38564077 7.57584432 -2.66682784 8.22227595 -5 9 C-4.484375 9.598125 -3.96875 10.19625 -3.4375 10.8125 C-2.963125 11.534375 -2.48875 12.25625 -2 13 C-2.33 13.99 -2.66 14.98 -3 16 C-4.36940568 14.42982807 -5.72012895 12.84334609 -7.0625 11.25 C-7.81660156 10.36828125 -8.57070313 9.4865625 -9.34765625 8.578125 C-11 6 -11 6 -10.88671875 3.78515625 C-8.55498312 -0.9091309 -4.61767493 -1.45126926 0 0 Z " fill="#26827A" transform="translate(308,276)"/>
<path d="M0 0 C0.66 1.32 1.32 2.64 2 4 C1.34 4 0.68 4 0 4 C0 3.34 0 2.68 0 2 C-2.31 2.33 -4.62 2.66 -7 3 C-7.020625 4.27875 -7.04125 5.5575 -7.0625 6.875 C-7.07410156 7.59429687 -7.08570313 8.31359375 -7.09765625 9.0546875 C-7.12649242 11.08185404 -7.12649242 11.08185404 -6 13 C-4.35 13 -2.7 13 -1 13 C-0.34 11.68 0.32 10.36 1 9 C-0.32 9 -1.64 9 -3 9 C-3 8.34 -3 7.68 -3 7 C-0.69 7 1.62 7 4 7 C4 9.31 4 11.62 4 14 C0.30516081 15.18234854 -3.14353614 15.2804701 -7 15 C-9.18034419 13.40880193 -9.90457694 12.51640715 -10.3984375 9.84375 C-10.39070312 9.0703125 -10.38296875 8.296875 -10.375 7.5 C-10.38273438 6.7265625 -10.39046875 5.953125 -10.3984375 5.15625 C-9.31194623 -0.72358513 -5.14352504 -0.29114293 0 0 Z " fill="#248078" transform="translate(251,298)"/>
<path d="M0 0 C1.86935556 3.52209051 2.9960582 7.06664291 4.12109375 10.87890625 C5.07130452 13.17208157 6.14411615 14.38191742 8 16 C7.67 16.99 7.34 17.98 7 19 C4.75 18.875 4.75 18.875 2 18 C-1.16576331 14.2186716 -2.8965904 10.96366061 -3 6 C-1.5625 2.625 -1.5625 2.625 0 0 Z " fill="#1F7F77" transform="translate(261,154)"/>
<path d="M0 0 C0 0.66 0 1.32 0 2 C-2.31 2.66 -4.62 3.32 -7 4 C-6.67 4.99 -6.34 5.98 -6 7 C-3.36 6.67 -0.72 6.34 2 6 C2 6.66 2 7.32 2 8 C-0.31 8.66 -2.62 9.32 -5 10 C-4.67 11.65 -4.34 13.3 -4 15 C-2.906875 14.505 -1.81375 14.01 -0.6875 13.5 C3 12 3 12 6 12 C6 12.66 6 13.32 6 14 C4.75579353 14.5345256 3.50429064 15.05208611 2.25 15.5625 C1.55390625 15.85253906 0.8578125 16.14257812 0.140625 16.44140625 C-2.43735364 17.11412695 -3.6011339 17.18943778 -6 16 C-7.265625 13.56640625 -7.265625 13.56640625 -8.25 10.5625 C-8.58515625 9.57378906 -8.9203125 8.58507812 -9.265625 7.56640625 C-10 5 -10 5 -10 3 C-3.375 0 -3.375 0 0 0 Z " fill="#2D857E" transform="translate(281,289)"/>
<path d="M0 0 C3.55780196 0.60990891 6.6828589 1.5783681 10 3 C10 3.66 10 4.32 10 5 C7.36 4.34 4.72 3.68 2 3 C1.67 3.99 1.34 4.98 1 6 C2.98 6.99 4.96 7.98 7 9 C6.67 9.66 6.34 10.32 6 11 C3.69 10.01 1.38 9.02 -1 8 C-1 9.65 -1 11.3 -1 13 C0.98 13.99 2.96 14.98 5 16 C4.67 16.66 4.34 17.32 4 18 C-0.455 16.02 -0.455 16.02 -5 14 C-4.34580901 8.93001981 -2.1453591 4.58009223 0 0 Z " fill="#2A837C" transform="translate(183,288)"/>
<path d="M0 0 C8.44303797 0.61181435 8.44303797 0.61181435 10.8046875 2.2578125 C12.39531951 4.57618465 12.19807535 5.80903841 11.8125 8.5625 C11.66748047 9.74005859 11.66748047 9.74005859 11.51953125 10.94140625 C11 13 11 13 9 15 C6.6171875 15.1953125 6.6171875 15.1953125 3.875 15.125 C1.461875 15.063125 1.461875 15.063125 -1 15 C-0.67 10.05 -0.34 5.1 0 0 Z M2 2 C1.67 5.96 1.34 9.92 1 14 C6.65784078 14.65493054 6.65784078 14.65493054 8.875 12.375 C10.30708042 9.35171911 10.4312426 7.30619324 10 4 C6.90754997 1.53774984 6.90754997 1.53774984 2 2 Z " fill="#197A72" transform="translate(210,297)"/>
<path d="M0 0 C1.94806149 2.92209224 3.45695045 5.84960716 5 9 C5.391875 9.78375 5.78375 10.5675 6.1875 11.375 C6.455625 11.91125 6.72375 12.4475 7 13 C5.3125 13.8125 5.3125 13.8125 3 14 C0.10326456 11.70955803 -1.65072654 9.89501324 -3 6.4375 C-3 3.35780846 -2.05584287 2.2203103 0 0 Z " fill="#1D7D76" transform="translate(110,159)"/>
<path d="M0 0 C-0.33 0.99 -0.66 1.98 -1 3 C-3.625 4.140625 -3.625 4.140625 -7 5.25 C-12.61579729 7.2763823 -16.76787697 9.68501559 -21.29296875 13.546875 C-23 15 -23 15 -25 16 C-27.125 15.0625 -27.125 15.0625 -29 14 C-4.69063181 0 -4.69063181 0 0 0 Z " fill="#2C3E38" transform="translate(191,69)"/>
<path d="M0 0 C0.33 0 0.66 0 1 0 C1 6.6 1 13.2 1 20 C0.34 20 -0.32 20 -1 20 C-3.39300292 5.94110787 -3.39300292 5.94110787 0 0 Z " fill="#3F4F49" transform="translate(117,140)"/>
<path d="M0 0 C0.66 0.66 1.32 1.32 2 2 C-0.31 4.97 -2.62 7.94 -5 11 C-4.175 11.78375 -3.35 12.5675 -2.5 13.375 C0 16 0 16 0 18 C-2.95409701 16.62845496 -5.44008376 15.01136276 -8 13 C-7.39665691 9.29496359 -5.77525763 7.14031852 -3.4375 4.25 C-2.79683594 3.45078125 -2.15617188 2.6515625 -1.49609375 1.828125 C-1.00238281 1.22484375 -0.50867188 0.6215625 0 0 Z " fill="#2D857D" transform="translate(161,273)"/>
<path d="M0 0 C0.66 0 1.32 0 2 0 C2.17081364 4.44115477 1.95398692 7.09202617 0 11 C-0.44811137 13.35564596 -0.44811137 13.35564596 -0.625 15.75 C-0.69976562 16.54921875 -0.77453125 17.3484375 -0.8515625 18.171875 C-0.90054687 18.77515625 -0.94953125 19.3784375 -1 20 C-1.33 20 -1.66 20 -2 20 C-2.05379226 17.04142591 -2.09357093 14.08382279 -2.125 11.125 C-2.14175781 10.28324219 -2.15851563 9.44148437 -2.17578125 8.57421875 C-2.18222656 7.76855469 -2.18867188 6.96289062 -2.1953125 6.1328125 C-2.21102295 5.01737061 -2.21102295 5.01737061 -2.22705078 3.87939453 C-2 2 -2 2 0 0 Z " fill="#0A726A" transform="translate(259,134)"/>
<path d="M0 0 C-0.1875 2.375 -0.1875 2.375 -1 5 C-3.5625 6.3125 -3.5625 6.3125 -6 7 C-6.66 5.68 -7.32 4.36 -8 3 C-4.93882432 0.37613513 -4.26826873 0 0 0 Z " fill="#EBF3EF" transform="translate(307,277)"/>
<path d="M0 0 C3.875 1.875 3.875 1.875 5 3 C5.07226502 4.85287502 5.0838122 6.70833878 5.0625 8.5625 C5.05347656 9.57441406 5.04445313 10.58632812 5.03515625 11.62890625 C5.02355469 12.41136719 5.01195313 13.19382813 5 14 C2.42853943 11.42853943 2.19882003 9.3949583 1.375 5.875 C1.11460938 4.77929688 0.85421875 3.68359375 0.5859375 2.5546875 C0.39257812 1.71164063 0.19921875 0.86859375 0 0 Z " fill="#42514C" transform="translate(110,210)"/>
<path d="M0 0 C0.66 0.33 1.32 0.66 2 1 C2 2.65 2 4.3 2 6 C3.98 6.99 5.96 7.98 8 9 C7.67 9.66 7.34 10.32 7 11 C2.545 9.02 2.545 9.02 -2 7 C-1.125 2.25 -1.125 2.25 0 0 Z " fill="#328881" transform="translate(180,295)"/>
<path d="M0 0 C2.31 0 4.62 0 7 0 C7 2.31 7 4.62 7 7 C5.68 6.67 4.36 6.34 3 6 C3.33 4.68 3.66 3.36 4 2 C2.68 2 1.36 2 0 2 C0 1.34 0 0.68 0 0 Z " fill="#409089" transform="translate(248,305)"/>
<path d="M0 0 C2.52588702 2.36292656 3.88820837 3.66462511 5 7 C4.01 7.33 3.02 7.66 2 8 C1.34 8.66 0.68 9.32 0 10 C0 6.7 0 3.4 0 0 Z " fill="#2A3C36" transform="translate(133,248)"/>
<path d="M0 0 C1.98 0 3.96 0 6 0 C4.02 0.99 4.02 0.99 2 2 C2 4.64 2 7.28 2 10 C1.67 10 1.34 10 1 10 C0.67 6.7 0.34 3.4 0 0 Z " fill="#44948C" transform="translate(210,297)"/>
<path d="M0 0 C0 0.66 0 1.32 0 2 C-1.7015625 2.433125 -1.7015625 2.433125 -3.4375 2.875 C-4.613125 3.24625 -5.78875 3.6175 -7 4 C-7.33 4.66 -7.66 5.32 -8 6 C-8 5.34 -8 4.68 -8 4 C-8.66 3.67 -9.32 3.34 -10 3 C-3.375 0 -3.375 0 0 0 Z " fill="#3D8F87" transform="translate(281,289)"/>
<path d="M0 0 C2 3 2 3 1.7578125 5.26171875 C1.54898437 6.06222656 1.34015625 6.86273438 1.125 7.6875 C0.92132813 8.49574219 0.71765625 9.30398437 0.5078125 10.13671875 C0.25644531 11.05904297 0.25644531 11.05904297 0 12 C-0.33 12 -0.66 12 -1 12 C-1.14285714 3.42857143 -1.14285714 3.42857143 0 0 Z " fill="#EBF3F0" transform="translate(285,158)"/>
<path d="M0 0 C0.99 0.33 1.98 0.66 3 1 C3 2.65 3 4.3 3 6 C0.525 5.01 0.525 5.01 -2 4 C-1.34 2.68 -0.68 1.36 0 0 Z " fill="#E6F0EC" transform="translate(185,290)"/>
<path d="M0 0 C0.66 0 1.32 0 2 0 C3.26237731 2.52475462 3.09856404 4.31200466 3.0625 7.125 C3.05347656 8.03507813 3.04445312 8.94515625 3.03515625 9.8828125 C3.02355469 10.58148438 3.01195312 11.28015625 3 12 C2.67 12 2.34 12 2 12 C1.8046875 9.94921875 1.609375 7.8984375 1.4140625 5.84765625 C1.27742187 5.23792969 1.14078125 4.62820312 1 4 C0.34 3.67 -0.32 3.34 -1 3 C-0.67 2.01 -0.34 1.02 0 0 Z " fill="#D7E8E3" transform="translate(234,165)"/>
<path d="M0 0 C-0.33 0.99 -0.66 1.98 -1 3 C-3.31 3.33 -5.62 3.66 -8 4 C-5.57415142 1.34311822 -3.76063134 0 0 0 Z " fill="#253731" transform="translate(191,69)"/>
</svg>
